<?xml version="1.0" encoding="UTF-8"?>
<svg xmlns="http://www.w3.org/2000/svg" xmlns:xlink="http://www.w3.org/1999/xlink" width="40px" height="40px" viewBox="0 0 40 40" version="1.1">
<g id="surface1">
<path style=" stroke:none;fill-rule:nonzero;fill:rgb(0%,0%,0%);fill-opacity:1;" d="M 18.054688 2.453125 C 16.707031 2.867188 16.347656 3.027344 16.292969 3.199219 C 16.238281 3.347656 16.292969 3.347656 16.507812 3.160156 C 16.691406 2.988281 16.800781 2.960938 16.867188 3.066406 C 16.933594 3.171875 17.011719 3.171875 17.148438 3.054688 C 17.308594 2.921875 17.375 2.945312 17.507812 3.121094 C 17.679688 3.347656 18.132812 3.292969 18.132812 3.054688 C 18.132812 2.972656 18.253906 2.988281 18.398438 3.066406 C 18.601562 3.171875 18.640625 3.171875 18.585938 3.027344 C 18.546875 2.894531 18.640625 2.8125 18.867188 2.761719 C 19.308594 2.679688 19.734375 2.785156 19.734375 2.972656 C 19.734375 3.054688 19.828125 3 19.945312 2.851562 C 20.105469 2.667969 20.132812 2.652344 20.09375 2.8125 C 20.039062 2.988281 20.09375 3.027344 20.308594 2.972656 C 20.546875 2.921875 20.574219 2.933594 20.398438 3.066406 C 20.238281 3.199219 20.253906 3.214844 20.507812 3.160156 C 20.667969 3.121094 20.800781 3.148438 20.800781 3.214844 C 20.800781 3.28125 20.894531 3.332031 21.011719 3.332031 C 21.160156 3.332031 21.199219 3.398438 21.148438 3.546875 C 21.078125 3.71875 21.132812 3.746094 21.414062 3.679688 C 21.652344 3.613281 21.734375 3.640625 21.667969 3.746094 C 21.519531 3.972656 21.878906 4.132812 22.171875 3.972656 C 22.398438 3.851562 22.425781 3.867188 22.359375 4.054688 C 22.066406 4.746094 22.066406 4.746094 22.292969 4.558594 C 22.464844 4.425781 22.519531 4.425781 22.558594 4.558594 C 22.613281 4.691406 22.679688 4.691406 22.867188 4.535156 C 23 4.425781 23.078125 4.398438 23.027344 4.480469 C 22.988281 4.558594 23.066406 4.746094 23.199219 4.90625 C 23.347656 5.066406 23.464844 5.253906 23.464844 5.320312 C 23.464844 5.398438 23.558594 5.425781 23.667969 5.386719 C 23.785156 5.332031 23.867188 5.386719 23.867188 5.507812 C 23.867188 5.613281 23.960938 5.734375 24.066406 5.785156 C 24.171875 5.828125 24.265625 5.945312 24.265625 6.054688 C 24.265625 6.160156 24.507812 6.480469 24.785156 6.773438 C 25.078125 7.066406 25.28125 7.347656 25.238281 7.386719 C 25.1875 7.425781 25.320312 7.464844 25.507812 7.464844 C 25.707031 7.464844 25.867188 7.535156 25.867188 7.613281 C 25.867188 7.679688 25.8125 7.71875 25.746094 7.667969 C 25.679688 7.625 25.574219 7.652344 25.535156 7.734375 C 25.480469 7.8125 25.519531 7.851562 25.625 7.839844 C 25.71875 7.8125 25.785156 7.878906 25.761719 7.960938 C 25.746094 8.054688 25.785156 8.132812 25.867188 8.132812 C 25.933594 8.132812 26 8.226562 26 8.332031 C 26 8.441406 26.09375 8.535156 26.214844 8.535156 C 26.347656 8.535156 26.398438 8.613281 26.347656 8.734375 C 26.308594 8.839844 26.347656 8.933594 26.414062 8.933594 C 26.492188 8.933594 26.535156 9.078125 26.507812 9.253906 C 26.464844 9.453125 26.519531 9.613281 26.667969 9.707031 C 26.800781 9.785156 26.933594 10.105469 26.988281 10.464844 C 27.054688 10.851562 27.132812 11.039062 27.226562 10.988281 C 27.320312 10.921875 27.347656 10.972656 27.292969 11.105469 C 27.253906 11.238281 27.265625 11.332031 27.332031 11.332031 C 27.414062 11.332031 27.464844 11.453125 27.464844 11.585938 C 27.464844 11.734375 27.535156 11.894531 27.601562 11.933594 C 27.679688 11.972656 27.734375 12.132812 27.734375 12.28125 C 27.734375 12.414062 27.800781 12.535156 27.867188 12.535156 C 27.945312 12.535156 28 12.667969 28 12.8125 C 28 12.972656 28.09375 13.171875 28.199219 13.253906 C 28.320312 13.332031 28.441406 13.667969 28.464844 13.972656 C 28.492188 14.28125 28.613281 14.8125 28.734375 15.148438 C 28.878906 15.601562 28.90625 15.8125 28.800781 15.933594 C 28.707031 16.039062 28.707031 16.148438 28.773438 16.1875 C 28.851562 16.226562 28.851562 16.507812 28.785156 16.878906 C 28.71875 17.214844 28.707031 17.546875 28.746094 17.613281 C 28.785156 17.679688 28.773438 17.8125 28.707031 17.894531 C 28.652344 17.988281 28.601562 18.1875 28.585938 18.332031 C 28.558594 18.828125 28.414062 19.375 28.265625 19.519531 C 28.199219 19.585938 28.132812 19.800781 28.132812 19.972656 C 28.132812 20.148438 28.078125 20.253906 28.011719 20.214844 C 27.945312 20.171875 27.8125 20.238281 27.71875 20.359375 C 27.558594 20.546875 27.558594 20.574219 27.746094 20.507812 C 27.878906 20.453125 27.960938 20.492188 27.960938 20.613281 C 27.960938 20.71875 27.878906 20.800781 27.773438 20.800781 C 27.679688 20.800781 27.585938 20.960938 27.574219 21.160156 C 27.546875 21.679688 27.558594 21.773438 27.652344 22.011719 C 27.71875 22.160156 27.667969 22.265625 27.519531 22.320312 C 27.332031 22.386719 27.320312 22.375 27.464844 22.199219 C 27.558594 22.09375 27.574219 22 27.507812 22 C 27.253906 22 27.09375 22.320312 27.160156 22.71875 C 27.199219 22.960938 27.132812 23.292969 27.011719 23.519531 C 26.90625 23.734375 26.839844 23.960938 26.878906 24.027344 C 26.921875 24.078125 26.839844 24.09375 26.71875 24.039062 C 26.558594 23.988281 26.519531 24 26.585938 24.121094 C 26.652344 24.214844 26.585938 24.398438 26.441406 24.558594 C 26.308594 24.71875 26.28125 24.800781 26.375 24.746094 C 26.625 24.601562 26.558594 24.851562 26.253906 25.253906 C 26.054688 25.507812 26.039062 25.574219 26.1875 25.519531 C 26.667969 25.332031 26.320312 25.921875 25.425781 26.8125 C 25.121094 27.132812 24.867188 27.453125 24.867188 27.535156 C 24.867188 27.601562 24.746094 27.667969 24.601562 27.667969 C 24.441406 27.667969 24.214844 27.851562 24.027344 28.171875 C 23.851562 28.441406 23.667969 28.667969 23.601562 28.667969 C 23.546875 28.667969 23.507812 28.761719 23.519531 28.894531 C 23.558594 29.171875 23.121094 30.09375 22.71875 30.574219 C 22.546875 30.785156 22.398438 31.011719 22.398438 31.09375 C 22.398438 31.160156 22.28125 31.398438 22.121094 31.613281 C 21.972656 31.828125 21.878906 32.105469 21.921875 32.214844 C 21.960938 32.332031 21.945312 32.375 21.851562 32.332031 C 21.773438 32.28125 21.679688 32.359375 21.640625 32.507812 C 21.613281 32.652344 21.425781 32.839844 21.253906 32.921875 C 21.078125 33 20.945312 33.121094 20.960938 33.171875 C 21.066406 33.507812 19.066406 35.375 18.851562 35.160156 C 18.8125 35.121094 18.625 35.171875 18.441406 35.265625 C 18.238281 35.375 18.039062 35.425781 17.972656 35.386719 C 17.90625 35.347656 17.878906 35.386719 17.894531 35.480469 C 17.921875 35.585938 17.761719 35.679688 17.492188 35.734375 C 17.011719 35.8125 16.90625 36.011719 17.292969 36.148438 C 17.601562 36.253906 18.558594 36 19.332031 35.601562 C 20.773438 34.867188 21.800781 33.851562 23.761719 31.253906 C 24.332031 30.507812 24.878906 29.839844 24.972656 29.773438 C 25.214844 29.640625 25.878906 28.574219 26.894531 26.734375 C 27.558594 25.535156 27.800781 24.894531 28.265625 23.199219 C 29.441406 18.90625 29.585938 18.066406 29.613281 15.800781 C 29.625 13.773438 29.464844 12.667969 28.867188 10.933594 C 27.546875 7.171875 25.585938 4.640625 22.90625 3.265625 C 21.480469 2.535156 19.09375 2.132812 18.054688 2.453125 Z M 21.734375 3.414062 C 21.734375 3.441406 21.640625 3.464844 21.535156 3.464844 C 21.425781 3.464844 21.332031 3.414062 21.332031 3.332031 C 21.332031 3.265625 21.425781 3.238281 21.535156 3.28125 C 21.640625 3.332031 21.734375 3.386719 21.734375 3.414062 Z M 21.734375 3.414062 "/>
<path style=" stroke:none;fill-rule:nonzero;fill:rgb(0%,0%,0%);fill-opacity:1;" d="M 17.625 4.734375 C 17.535156 4.921875 17.398438 4.960938 17.078125 4.894531 C 16.839844 4.839844 16.667969 4.867188 16.667969 4.933594 C 16.667969 5.011719 16.574219 5.066406 16.464844 5.066406 C 16.347656 5.066406 16.09375 5.214844 15.894531 5.398438 C 15.691406 5.585938 15.480469 5.734375 15.398438 5.734375 C 15.332031 5.734375 15.011719 5.839844 14.707031 5.960938 C 13.945312 6.28125 13.519531 7.066406 13.398438 8.332031 C 13.359375 8.851562 13.292969 9.375 13.253906 9.492188 C 13.214844 9.625 13.253906 9.734375 13.332031 9.734375 C 13.425781 9.734375 13.464844 9.839844 13.425781 10 C 13.386719 10.132812 13.441406 10.332031 13.546875 10.414062 C 13.652344 10.492188 13.734375 10.640625 13.71875 10.71875 C 13.691406 10.945312 13.894531 11.464844 14 11.464844 C 14.054688 11.464844 14.148438 11.679688 14.1875 11.933594 C 14.238281 12.199219 14.332031 12.375 14.414062 12.332031 C 14.480469 12.28125 14.535156 12.332031 14.535156 12.453125 C 14.535156 12.558594 14.625 12.8125 14.734375 13.027344 C 15.011719 13.558594 15.464844 14.625 15.464844 14.761719 C 15.464844 14.828125 15.585938 14.945312 15.734375 15.039062 C 15.878906 15.132812 16 15.28125 16 15.375 C 16 15.625 17.265625 16.785156 17.945312 17.148438 C 18.558594 17.464844 19.867188 17.601562 19.867188 17.332031 C 19.867188 17.265625 19.960938 17.238281 20.066406 17.28125 C 20.1875 17.332031 20.265625 17.28125 20.265625 17.148438 C 20.265625 17.027344 20.214844 16.933594 20.132812 16.933594 C 20.066406 16.933594 20 16.867188 20 16.785156 C 20 16.707031 19.851562 16.453125 19.679688 16.226562 C 19.265625 15.667969 19.027344 14.90625 19.148438 14.480469 C 19.214844 14.1875 19.171875 14.132812 18.839844 14.054688 C 17.292969 13.707031 16.734375 13.464844 16.375 13.011719 C 16.066406 12.640625 16.066406 12.054688 16.375 11.878906 C 16.546875 11.785156 16.601562 11.574219 16.601562 10.972656 C 16.601562 10.546875 16.652344 10.132812 16.707031 10.054688 C 16.761719 9.960938 16.8125 9.679688 16.828125 9.414062 C 16.851562 9.148438 16.933594 8.933594 17 8.933594 C 17.078125 8.921875 16.972656 8.785156 16.785156 8.625 C 16.601562 8.464844 16.375 8.148438 16.28125 7.90625 C 15.945312 7.066406 16.425781 5.851562 17.132812 5.773438 C 17.667969 5.707031 17.839844 5.652344 18.054688 5.480469 C 18.171875 5.375 18.667969 5.292969 19.265625 5.292969 C 19.867188 5.28125 20.253906 5.214844 20.226562 5.132812 C 20.171875 4.972656 19.320312 4.773438 18.535156 4.746094 C 18.199219 4.746094 17.894531 4.679688 17.851562 4.613281 C 17.800781 4.558594 17.707031 4.613281 17.625 4.734375 Z M 17.625 4.734375 "/>
<path style=" stroke:none;fill-rule:nonzero;fill:rgb(0%,0%,0%);fill-opacity:1;" d="M 12.507812 6.441406 C 12.09375 7.253906 11.8125 8.667969 12.027344 8.867188 C 12.121094 8.960938 12.148438 8.945312 12.09375 8.851562 C 12.039062 8.773438 12.214844 8.054688 12.480469 7.265625 C 12.746094 6.480469 12.933594 5.828125 12.90625 5.800781 C 12.878906 5.773438 12.707031 6.066406 12.507812 6.441406 Z M 12.507812 6.441406 "/>
<path style=" stroke:none;fill-rule:nonzero;fill:rgb(0%,0%,0%);fill-opacity:1;" d="M 23.464844 8.160156 C 23.464844 8.292969 23.464844 8.441406 23.480469 8.480469 C 23.480469 8.535156 23.414062 8.625 23.308594 8.691406 C 23.171875 8.785156 23.171875 8.828125 23.359375 8.933594 C 23.480469 9.011719 23.558594 9.160156 23.519531 9.265625 C 23.464844 9.375 23.507812 9.464844 23.601562 9.464844 C 23.679688 9.464844 23.734375 9.574219 23.71875 9.691406 C 23.679688 10.066406 23.878906 10.933594 24.011719 10.933594 C 24.078125 10.933594 24.132812 11.027344 24.132812 11.148438 C 24.132812 11.265625 24.199219 11.308594 24.308594 11.253906 C 24.386719 11.199219 24.425781 11.214844 24.359375 11.265625 C 24.308594 11.332031 24.359375 11.519531 24.480469 11.691406 C 24.894531 12.332031 25.066406 13.066406 24.945312 13.613281 C 24.851562 14.039062 24.867188 14.160156 25.039062 14.253906 C 25.214844 14.347656 25.226562 14.414062 25.09375 14.558594 C 24.972656 14.707031 24.972656 14.785156 25.09375 14.90625 C 25.1875 15 25.199219 15.066406 25.132812 15.066406 C 25.054688 15.066406 25 15.214844 25 15.398438 C 25 15.585938 25.039062 15.734375 25.09375 15.734375 C 25.148438 15.734375 25.199219 16.011719 25.199219 16.359375 C 25.214844 17.1875 25.265625 17.71875 25.359375 17.800781 C 25.398438 17.839844 25.375 18.1875 25.320312 18.574219 C 25.253906 18.945312 25.238281 19.375 25.28125 19.492188 C 25.320312 19.625 25.28125 19.734375 25.199219 19.734375 C 25.105469 19.734375 25.078125 19.828125 25.121094 19.960938 C 25.171875 20.078125 25.160156 20.214844 25.09375 20.253906 C 24.839844 20.441406 24.546875 21.492188 24.679688 21.8125 C 24.839844 22.253906 24.839844 22.519531 24.667969 22.265625 C 24.558594 22.09375 24.535156 22.105469 24.535156 22.320312 C 24.535156 22.492188 24.601562 22.546875 24.800781 22.492188 C 24.960938 22.453125 25.121094 22.507812 25.199219 22.640625 C 25.292969 22.828125 25.332031 22.785156 25.414062 22.441406 C 25.453125 22.199219 25.558594 22.039062 25.652344 22.078125 C 25.734375 22.105469 25.878906 21.945312 25.972656 21.707031 C 26.066406 21.464844 26.347656 20.878906 26.585938 20.398438 C 26.828125 19.921875 27.039062 19.320312 27.054688 19.066406 C 27.066406 18.8125 27.148438 18.574219 27.226562 18.519531 C 27.308594 18.464844 27.332031 18.308594 27.292969 18.148438 C 27.253906 17.988281 27.28125 17.828125 27.359375 17.785156 C 27.535156 17.679688 27.464844 14.921875 27.253906 13.933594 C 27.160156 13.492188 27.078125 12.945312 27.078125 12.707031 C 27.066406 12.480469 27.011719 12.253906 26.945312 12.214844 C 26.878906 12.171875 26.625 11.785156 26.398438 11.359375 C 25.546875 9.851562 24.734375 8.667969 24.574219 8.734375 C 24.464844 8.761719 24.441406 8.707031 24.492188 8.574219 C 24.546875 8.425781 24.519531 8.386719 24.425781 8.453125 C 24.332031 8.507812 24.265625 8.480469 24.265625 8.386719 C 24.265625 8.253906 24.226562 8.253906 24.121094 8.359375 C 24 8.480469 23.90625 8.441406 23.71875 8.226562 C 23.507812 7.972656 23.480469 7.960938 23.464844 8.160156 Z M 23.464844 8.160156 "/>
<path style=" stroke:none;fill-rule:nonzero;fill:rgb(0%,0%,0%);fill-opacity:1;" d="M 14.148438 17.519531 C 14.027344 17.667969 14.011719 17.734375 14.121094 17.734375 C 14.199219 17.734375 14.265625 17.800781 14.265625 17.878906 C 14.265625 17.960938 14.386719 18.1875 14.535156 18.398438 C 14.761719 18.71875 14.800781 19 14.8125 20.707031 C 14.828125 22.480469 14.8125 22.707031 14.535156 23.226562 C 14.375 23.546875 14.148438 23.90625 14.027344 24.039062 C 13.441406 24.707031 13.308594 25.933594 13.773438 26.480469 C 14.039062 26.773438 14.1875 26.839844 14.652344 26.828125 C 15.667969 26.785156 16.585938 26.066406 18 24.238281 C 18.253906 23.90625 18.640625 23.507812 18.867188 23.347656 C 19.199219 23.105469 19.226562 23.066406 19 23.054688 C 18.851562 23.039062 18.707031 23.039062 18.667969 23.039062 C 18.625 23.039062 18.601562 22.867188 18.601562 22.652344 C 18.601562 22.441406 18.640625 22.265625 18.707031 22.265625 C 18.878906 22.265625 18.8125 21.90625 18.601562 21.734375 C 18.492188 21.640625 18.398438 21.492188 18.398438 21.414062 C 18.398438 21.332031 18.453125 21.347656 18.519531 21.453125 C 18.613281 21.585938 18.652344 21.601562 18.734375 21.464844 C 18.800781 21.359375 18.746094 21.226562 18.625 21.132812 C 18.332031 20.921875 18.347656 20.839844 18.640625 20.761719 C 18.851562 20.707031 18.851562 20.691406 18.640625 20.679688 C 18.507812 20.679688 18.398438 20.558594 18.386719 20.425781 C 18.347656 19.734375 18.292969 19.320312 18.253906 19.28125 C 18.226562 19.265625 17.933594 19.039062 17.601562 18.785156 C 16.066406 17.625 14.535156 17.054688 14.148438 17.519531 Z M 17.199219 24.507812 C 17.199219 24.613281 16.707031 25.066406 16.601562 25.066406 C 16.558594 25.066406 16.625 24.921875 16.746094 24.734375 C 16.960938 24.414062 17.199219 24.292969 17.199219 24.507812 Z M 17.199219 24.507812 "/>
<path style=" stroke:none;fill-rule:nonzero;fill:rgb(0%,0%,0%);fill-opacity:1;" d="M 21.039062 22.625 C 21.132812 22.667969 21.253906 22.652344 21.292969 22.613281 C 21.347656 22.574219 21.265625 22.535156 21.121094 22.546875 C 20.972656 22.546875 20.933594 22.585938 21.039062 22.625 Z M 21.039062 22.625 "/>
<path style=" stroke:none;fill-rule:nonzero;fill:rgb(0%,0%,0%);fill-opacity:1;" d="M 19.867188 22.800781 C 19.71875 22.90625 19.761719 22.921875 20.054688 22.878906 C 20.265625 22.839844 20.464844 22.773438 20.507812 22.734375 C 20.640625 22.613281 20.066406 22.667969 19.867188 22.800781 Z M 19.867188 22.800781 "/>
<path style=" stroke:none;fill-rule:nonzero;fill:rgb(0%,0%,0%);fill-opacity:1;" d="M 24.375 22.894531 C 24.464844 22.933594 24.585938 22.921875 24.625 22.878906 C 24.679688 22.839844 24.601562 22.800781 24.453125 22.8125 C 24.308594 22.8125 24.265625 22.851562 24.375 22.894531 Z M 24.375 22.894531 "/>
</g>
</svg>
