<?xml version="1.0" standalone="no"?>
<!DOCTYPE svg PUBLIC "-//W3C//DTD SVG 20010904//EN"
 "http://www.w3.org/TR/2001/REC-SVG-20010904/DTD/svg10.dtd">
<svg version="1.0" xmlns="http://www.w3.org/2000/svg"
 width="300.000000pt" height="300.000000pt" viewBox="0 0 300.000000 300.000000"
 preserveAspectRatio="xMidYMid meet">

<g transform="translate(0.000000,300.000000) scale(0.100000,-0.100000)"
fill="#000000" stroke="none">
<path d="M1354 2816 c-101 -31 -128 -43 -132 -56 -4 -11 0 -11 16 3 14 13 22
15 27 7 5 -8 11 -8 21 1 12 10 17 8 27 -5 13 -17 47 -13 47 5 0 6 9 5 20 -1
15 -8 18 -8 14 3 -3 10 4 16 21 20 33 6 65 -2 65 -16 0 -6 7 -2 16 9 12 14 14
15 11 3 -4 -13 0 -16 16 -12 18 4 20 3 7 -7 -12 -10 -11 -11 8 -7 12 3 22 1
22 -4 0 -5 7 -9 16 -9 11 0 14 -5 10 -16 -5 -13 -1 -15 20 -10 18 5 24 3 19
-5 -11 -17 16 -29 38 -17 17 9 19 8 14 -6 -22 -52 -22 -52 -5 -38 13 10 17 10
20 0 4 -10 9 -10 23 2 10 8 16 10 12 4 -3 -6 3 -20 13 -32 11 -12 20 -26 20
-31 0 -6 7 -8 15 -5 9 4 15 0 15 -9 0 -8 7 -17 15 -21 8 -3 15 -12 15 -20 0
-8 18 -32 39 -54 22 -22 37 -43 34 -46 -4 -3 6 -6 20 -6 15 0 27 -5 27 -11 0
-5 -4 -8 -9 -4 -5 3 -13 1 -16 -5 -4 -6 -1 -9 7 -8 7 2 12 -3 10 -9 -1 -7 2
-13 8 -13 5 0 10 -7 10 -15 0 -8 7 -15 16 -15 10 0 14 -6 10 -15 -3 -8 0 -15
5 -15 6 0 9 -11 7 -24 -3 -15 1 -27 12 -34 10 -6 20 -30 24 -57 5 -29 11 -43
18 -39 7 5 9 1 5 -9 -3 -10 -2 -17 3 -17 6 0 10 -9 10 -19 0 -11 5 -23 10 -26
6 -3 10 -15 10 -26 0 -10 5 -19 10 -19 6 0 10 -10 10 -21 0 -12 7 -27 15 -33
9 -6 18 -31 20 -54 2 -23 11 -63 20 -88 11 -34 13 -50 5 -59 -7 -8 -7 -16 -2
-19 6 -3 6 -24 1 -52 -5 -25 -6 -50 -3 -55 3 -5 2 -15 -3 -21 -4 -7 -8 -22 -9
-33 -2 -37 -13 -78 -24 -89 -5 -5 -10 -21 -10 -34 0 -13 -4 -21 -9 -18 -5 3
-15 -2 -22 -11 -12 -14 -12 -16 2 -11 10 4 16 1 16 -8 0 -8 -6 -14 -14 -14 -7
0 -14 -12 -15 -27 -2 -39 -1 -46 6 -64 5 -11 1 -19 -10 -23 -14 -5 -15 -4 -4
9 7 8 8 15 3 15 -19 0 -31 -24 -26 -54 3 -18 -2 -43 -11 -60 -8 -16 -13 -33
-10 -38 3 -4 -3 -5 -12 -1 -12 4 -15 3 -10 -6 5 -7 0 -21 -11 -33 -10 -12 -12
-18 -5 -14 19 11 14 -8 -9 -38 -15 -19 -16 -24 -5 -20 36 14 10 -30 -57 -97
-23 -24 -42 -48 -42 -54 0 -5 -9 -10 -20 -10 -12 0 -29 -14 -43 -38 -13 -20
-27 -37 -32 -37 -4 0 -7 -7 -6 -17 3 -21 -30 -90 -60 -126 -13 -16 -24 -33
-24 -39 0 -5 -9 -23 -21 -39 -11 -16 -18 -37 -15 -45 3 -9 2 -12 -5 -9 -6 4
-13 -2 -16 -13 -2 -11 -16 -25 -29 -31 -13 -6 -23 -15 -22 -19 8 -25 -142
-165 -158 -149 -3 3 -17 -1 -31 -8 -15 -8 -30 -12 -35 -9 -5 3 -7 0 -6 -7 2
-8 -10 -15 -30 -19 -36 -6 -44 -21 -15 -31 23 -8 95 11 153 41 108 55 185 131
332 326 43 56 84 106 91 111 18 10 68 90 144 228 50 90 68 138 103 265 88 322
99 385 101 555 1 152 -11 235 -56 365 -99 282 -246 472 -447 575 -107 55 -286
85 -364 61z m276 -72 c0 -2 -7 -4 -15 -4 -8 0 -15 4 -15 10 0 5 7 7 15 4 8 -4
15 -8 15 -10z"/>
<path d="M1322 2645 c-7 -14 -17 -17 -41 -12 -18 4 -31 2 -31 -3 0 -6 -7 -10
-15 -10 -9 0 -28 -11 -43 -25 -15 -14 -31 -25 -37 -25 -5 0 -29 -8 -52 -17
-57 -24 -89 -83 -98 -178 -3 -39 -8 -78 -11 -87 -3 -10 0 -18 6 -18 7 0 10 -8
7 -20 -3 -10 1 -25 9 -31 8 -6 14 -17 13 -23 -2 -17 13 -56 21 -56 4 0 11 -16
14 -35 4 -20 11 -33 17 -30 5 4 9 0 9 -9 0 -8 7 -27 15 -43 21 -40 55 -120 55
-130 0 -5 9 -14 20 -21 11 -7 20 -18 20 -25 0 -19 95 -106 146 -133 46 -24
144 -34 144 -14 0 5 7 7 15 4 9 -4 15 0 15 10 0 9 -4 16 -10 16 -5 0 -10 5
-10 11 0 6 -11 25 -24 42 -31 42 -49 99 -40 131 5 22 2 26 -23 32 -116 26
-158 44 -185 78 -23 28 -23 72 0 85 13 7 17 23 17 68 0 32 4 63 8 69 4 7 8 28
9 48 2 20 8 36 13 36 6 1 -2 11 -16 23 -14 12 -31 36 -38 54 -25 63 11 154 64
160 40 5 53 9 69 22 9 8 46 14 91 14 45 1 74 6 72 12 -4 12 -68 27 -127 29
-25 0 -48 5 -51 10 -4 4 -11 0 -17 -9z"/>
<path d="M938 2517 c-31 -61 -52 -167 -36 -182 7 -7 9 -6 5 1 -4 6 9 60 29
119 20 59 34 108 32 110 -2 2 -15 -20 -30 -48z"/>
<path d="M1760 2388 c0 -10 0 -21 1 -24 0 -4 -5 -11 -13 -16 -10 -7 -10 -10 4
-18 9 -6 15 -17 12 -25 -4 -8 -1 -15 6 -15 6 0 10 -8 9 -17 -3 -28 12 -93 22
-93 5 0 9 -7 9 -16 0 -9 5 -12 13 -8 6 4 9 3 4 -1 -4 -5 0 -19 9 -32 31 -48
44 -103 35 -144 -7 -32 -6 -41 7 -48 13 -7 14 -12 4 -23 -9 -11 -9 -17 0 -26
7 -7 8 -12 3 -12 -6 0 -10 -11 -10 -25 0 -14 3 -25 7 -25 4 0 8 -21 8 -47 1
-62 5 -102 12 -108 3 -3 1 -29 -3 -58 -5 -28 -6 -60 -3 -69 3 -10 0 -18 -6
-18 -7 0 -9 -7 -6 -17 4 -9 3 -19 -2 -22 -19 -14 -41 -93 -31 -117 12 -33 12
-53 -1 -34 -8 13 -10 12 -10 -4 0 -13 5 -17 20 -13 12 3 24 -1 30 -11 7 -14
10 -11 16 15 3 18 11 30 18 27 6 -2 17 10 24 28 7 18 28 62 46 98 18 36 34 81
35 100 1 19 7 37 13 41 6 4 8 16 5 28 -3 12 -1 24 5 27 13 8 8 215 -8 289 -7
33 -13 74 -13 92 -1 17 -5 34 -10 37 -5 3 -24 32 -41 64 -64 113 -125 202
-137 197 -8 -2 -10 2 -6 12 4 11 2 14 -5 9 -7 -4 -12 -2 -12 5 0 10 -3 10 -11
2 -9 -9 -16 -6 -30 10 -16 19 -18 20 -19 5z"/>
<path d="M1061 1686 c-9 -11 -10 -16 -2 -16 6 0 11 -5 11 -11 0 -6 9 -23 20
-39 17 -24 20 -45 21 -173 1 -133 0 -150 -21 -189 -12 -24 -29 -51 -38 -61
-44 -50 -54 -142 -19 -183 20 -22 31 -27 66 -26 76 3 145 57 251 194 19 25 48
55 65 67 25 18 27 21 10 22 -11 1 -22 1 -25 1 -3 0 -5 13 -5 29 0 16 3 29 8
29 13 0 8 27 -8 40 -8 7 -15 18 -15 24 0 6 4 5 9 -3 7 -10 10 -11 16 -1 5 8 1
18 -8 25 -22 16 -21 22 1 28 16 4 16 5 0 6 -10 0 -18 9 -19 19 -3 52 -7 83
-10 86 -2 1 -24 18 -49 37 -115 87 -230 130 -259 95z m229 -524 c0 -8 -37 -42
-45 -42 -3 0 2 11 11 25 16 24 34 33 34 17z"/>
<path d="M1578 1303 c7 -3 16 -2 19 1 4 3 -2 6 -13 5 -11 0 -14 -3 -6 -6z"/>
<path d="M1490 1290 c-11 -8 -8 -9 14 -6 16 3 31 8 34 11 10 9 -33 5 -48 -5z"/>
<path d="M1828 1283 c7 -3 16 -2 19 1 4 3 -2 6 -13 5 -11 0 -14 -3 -6 -6z"/>
</g>
</svg>
